<?xml version="1.0" encoding="UTF-8"?><svg id="Capa_2" xmlns="http://www.w3.org/2000/svg" viewBox="0 0 49.25 49.25"><defs><style>.cls-1{fill:#f49819;}</style></defs><g id="Layer_1"><g><path class="cls-1" d="m24.62,19.88c-2.62,0-4.75,2.13-4.75,4.75s2.13,4.75,4.75,4.75,4.75-2.13,4.75-4.75-2.13-4.75-4.75-4.75Z"/><path class="cls-1" d="m35.73,16.22c-.26-.67-.57-1.14-1.07-1.64-.5-.5-.97-.81-1.64-1.07-.5-.2-1.26-.43-2.65-.49-1.5-.07-1.95-.08-5.76-.08s-4.25.01-5.76.08c-1.39.06-2.14.3-2.65.49-.66.26-1.14.57-1.64,1.07-.5.5-.81.97-1.07,1.64-.2.5-.43,1.26-.49,2.65-.07,1.5-.08,1.95-.08,5.76s.01,4.25.08,5.76c.06,1.39.3,2.14.49,2.65.26.66.57,1.14,1.07,1.64.5.5.97.81,1.64,1.07.5.2,1.26.43,2.65.49,1.5.07,1.95.08,5.76.08s4.26-.01,5.76-.08c1.39-.06,2.14-.3,2.65-.49.66-.26,1.14-.57,1.64-1.07s.81-.97,1.07-1.64c.19-.5.43-1.26.49-2.65.07-1.5.08-1.95.08-5.76s-.01-4.25-.08-5.76c-.06-1.39-.3-2.14-.49-2.65Zm-11.11,15.72c-4.04,0-7.32-3.28-7.32-7.32s3.28-7.32,7.32-7.32,7.32,3.28,7.32,7.32-3.28,7.32-7.32,7.32Zm7.61-13.21c-.94,0-1.71-.77-1.71-1.71s.77-1.71,1.71-1.71,1.71.77,1.71,1.71-.77,1.71-1.71,1.71Z"/><path class="cls-1" d="m24.62,0C11.02,0,0,11.03,0,24.63s11.02,24.63,24.62,24.63,24.62-11.02,24.62-24.63S38.23,0,24.62,0Zm14.16,30.5c-.07,1.52-.31,2.55-.66,3.46-.36.94-.85,1.73-1.64,2.52-.79.79-1.59,1.28-2.52,1.64-.91.35-1.94.59-3.46.66-1.52.07-2,.09-5.87.09s-4.35-.02-5.87-.09c-1.52-.07-2.55-.31-3.46-.66-.94-.36-1.73-.85-2.52-1.64-.79-.79-1.28-1.59-1.64-2.52-.35-.91-.59-1.94-.66-3.46-.07-1.52-.09-2-.09-5.87s.02-4.35.09-5.87c.07-1.52.31-2.55.66-3.46.36-.94.85-1.73,1.64-2.52.79-.79,1.59-1.28,2.52-1.64.91-.35,1.94-.59,3.46-.66,1.52-.07,2-.09,5.87-.09s4.35.02,5.87.09c1.52.07,2.55.31,3.46.66.94.36,1.73.85,2.52,1.64.79.79,1.28,1.59,1.64,2.52.35.91.59,1.94.66,3.46.07,1.52.09,2,.09,5.87s-.02,4.35-.09,5.87Z"/></g></g></svg>