<?xml version="1.0" encoding="UTF-8"?><svg id="Capa_2" xmlns="http://www.w3.org/2000/svg" viewBox="0 0 49.25 49.25"><defs><style>.cls-1{fill:#f49819;}</style></defs><g id="Layer_1"><path class="cls-1" d="m24.62,0C11.03,0,0,11.03,0,24.62s11.03,24.62,24.62,24.62,24.62-11.02,24.62-24.62S38.22,0,24.62,0Zm12.41,19.66c.01.27.02.53.02.8,0,8.2-6.24,17.66-17.66,17.66-3.5,0-6.77-1.03-9.51-2.79.49.06.98.09,1.48.09,2.91,0,5.58-.99,7.71-2.66-2.72-.05-5.01-1.84-5.8-4.31.38.07.77.11,1.17.11.57,0,1.11-.08,1.64-.22-2.84-.57-4.98-3.08-4.98-6.08,0-.03,0-.05,0-.08.84.46,1.79.74,2.81.78-1.67-1.12-2.76-3.01-2.76-5.17,0-1.14.31-2.2.84-3.12,3.06,3.75,7.63,6.22,12.79,6.48-.11-.45-.16-.93-.16-1.41,0-3.43,2.78-6.21,6.21-6.21,1.79,0,3.4.75,4.53,1.96,1.41-.28,2.74-.79,3.94-1.51-.46,1.45-1.45,2.67-2.73,3.43,1.26-.15,2.45-.48,3.56-.98-.83,1.24-1.88,2.34-3.1,3.21Z"/></g></svg>