<?xml version="1.0" encoding="UTF-8"?><svg id="Capa_2" xmlns="http://www.w3.org/2000/svg" viewBox="0 0 49.25 49.25"><defs><style>.cls-1{fill:#f49819;}</style></defs><g id="Layer_1"><path class="cls-1" d="m24.62,0C11.03,0,0,11.03,0,24.62s11.03,24.62,24.62,24.62,24.62-11.02,24.62-24.62S38.22,0,24.62,0Zm14.26,18.56c-1.64,9.27-10.83,17.11-13.6,18.91-2.77,1.79-5.29-.72-6.2-2.62-1.05-2.16-4.19-13.9-5.01-14.87-.82-.97-3.29.97-3.29.97l-1.2-1.57s5.01-5.98,8.82-6.73c4.04-.79,4.03,6.2,5,10.09.94,3.76,1.57,5.9,2.39,5.9s2.39-2.09,4.11-5.3c1.72-3.21-.07-6.05-3.44-4.04,1.35-8.07,14.05-10.01,12.4-.75Z"/></g></svg>