<?xml version="1.0" encoding="UTF-8"?><svg id="Capa_2" xmlns="http://www.w3.org/2000/svg" viewBox="0 0 49.25 49.25"><defs><style>.cls-1{fill:#f49819;}</style></defs><g id="Layer_1"><path class="cls-1" d="m24.62,0C11.03,0,0,11.02,0,24.62s11.03,24.62,24.62,24.62,24.62-11.02,24.62-24.62S38.22,0,24.62,0Zm11.3,26.12l-15.71,9.97c-.29.18-.62.28-.95.28-.29,0-.59-.07-.85-.22-.57-.31-.92-.91-.92-1.55V14.66c0-.65.35-1.24.92-1.55.57-.31,1.26-.29,1.8.06l15.71,9.97c.51.33.82.89.82,1.5s-.31,1.17-.82,1.5Z"/></g></svg>